<svg id="svg" version="1.1" xmlns="http://www.w3.org/2000/svg" xmlns:xlink="http://www.w3.org/1999/xlink" width="400" height="133.05870236869205" viewBox="0, 0, 400,133.05870236869205"><g id="svgg"><path id="path0" d="M138.667 14.508 C 135.813 14.706,131.925 15.366,129.417 16.078 C 128.867 16.234,128.192 16.422,127.917 16.496 C 127.642 16.569,126.742 16.870,125.917 17.164 C 125.092 17.459,124.247 17.738,124.039 17.786 C 123.832 17.834,123.621 17.939,123.571 18.020 C 123.521 18.101,123.361 18.167,123.216 18.167 C 122.749 18.167,116.858 21.148,115.724 21.958 C 115.435 22.165,115.149 22.333,115.087 22.333 C 114.823 22.333,110.548 25.503,109.167 26.723 C 106.855 28.764,103.995 31.708,102.664 33.417 C 102.163 34.058,101.678 34.674,101.585 34.786 C 101.493 34.897,101.338 35.085,101.241 35.203 C 99.664 37.129,96.414 42.903,95.164 46.000 C 94.960 46.504,94.699 47.142,94.583 47.417 C 94.467 47.692,94.279 48.217,94.165 48.583 C 94.052 48.950,93.893 49.380,93.813 49.539 C 93.732 49.699,93.667 49.936,93.667 50.067 C 93.667 50.198,93.520 50.648,93.341 51.066 L 93.015 51.827 56.466 51.872 L 19.917 51.917 18.449 52.377 C 11.220 54.644,6.915 61.935,8.682 68.917 C 8.868 69.650,9.065 70.438,9.120 70.667 C 9.254 71.223,10.421 73.437,10.965 74.167 C 12.893 76.753,15.248 78.342,18.917 79.532 C 19.452 79.706,26.850 79.765,56.333 79.833 L 93.083 79.917 93.565 81.417 C 93.830 82.242,94.137 83.142,94.248 83.417 C 94.359 83.692,94.544 84.179,94.658 84.500 C 95.347 86.425,97.162 90.178,98.308 92.045 C 98.688 92.665,99.000 93.212,99.000 93.260 C 99.000 93.308,99.076 93.438,99.168 93.549 C 99.260 93.659,99.911 94.575,100.613 95.583 C 101.316 96.592,101.936 97.454,101.991 97.500 C 102.047 97.546,102.352 97.921,102.670 98.333 C 104.303 100.452,108.035 104.172,110.417 106.055 C 112.926 108.040,112.841 107.977,113.542 108.374 C 113.885 108.569,114.167 108.789,114.167 108.864 C 114.167 108.939,114.270 109.000,114.396 109.000 C 114.523 109.000,114.713 109.106,114.821 109.235 C 114.928 109.364,115.256 109.592,115.549 109.741 C 115.843 109.891,116.383 110.200,116.750 110.427 C 117.117 110.655,117.604 110.931,117.833 111.042 C 118.063 111.153,118.287 111.288,118.333 111.342 C 118.379 111.397,118.773 111.586,119.208 111.762 C 119.643 111.939,119.999 112.140,119.999 112.208 C 120.000 112.277,120.089 112.333,120.197 112.333 C 120.306 112.333,120.700 112.477,121.072 112.652 C 121.445 112.828,122.125 113.132,122.583 113.328 C 123.042 113.524,123.567 113.750,123.750 113.829 C 124.538 114.170,126.441 114.833,126.631 114.833 C 126.745 114.833,126.968 114.908,127.127 114.999 C 127.828 115.399,132.617 116.510,135.000 116.825 C 138.729 117.317,139.806 117.344,154.391 117.297 L 169.365 117.250 169.342 108.820 C 169.328 103.458,169.381 100.229,169.489 99.945 L 169.658 99.500 186.121 99.500 C 203.039 99.500,203.278 99.492,205.250 98.865 C 210.898 97.069,214.175 89.886,211.843 84.417 C 211.133 82.753,210.846 82.306,209.517 80.798 C 208.902 80.100,206.362 78.333,205.973 78.333 C 205.841 78.333,205.662 78.269,205.575 78.190 C 204.859 77.539,203.769 77.500,186.519 77.500 C 171.566 77.500,169.830 77.473,169.594 77.237 C 169.303 76.946,169.230 55.492,169.518 54.714 L 169.654 54.344 186.619 54.286 C 204.915 54.224,204.012 54.267,206.053 53.364 C 211.777 50.832,214.264 43.797,211.383 38.285 C 211.250 38.030,211.037 37.621,210.910 37.376 C 210.194 35.997,208.109 34.179,206.240 33.304 C 203.942 32.229,204.889 32.282,186.333 32.178 L 169.417 32.083 169.380 23.417 C 169.359 18.650,169.341 14.656,169.338 14.542 C 169.333 14.308,141.978 14.278,138.667 14.508 M228.308 65.572 C 228.295 93.766,228.276 116.927,228.267 117.042 C 228.244 117.329,262.644 117.436,265.500 117.158 C 275.931 116.141,286.784 111.696,293.422 105.722 C 293.609 105.554,294.244 105.004,294.835 104.500 C 296.221 103.316,298.152 101.383,299.417 99.913 C 299.967 99.273,300.455 98.712,300.501 98.667 C 300.547 98.621,300.806 98.283,301.075 97.917 C 301.345 97.550,301.608 97.212,301.659 97.167 C 302.501 96.413,305.318 91.872,306.880 88.750 C 307.616 87.278,307.828 86.806,308.654 84.792 C 308.738 84.585,308.934 84.042,309.088 83.583 C 309.242 83.125,309.430 82.600,309.506 82.417 C 309.581 82.233,309.771 81.671,309.927 81.167 C 310.083 80.662,310.285 80.156,310.376 80.042 C 310.507 79.876,318.032 79.833,346.999 79.833 C 387.315 79.833,384.289 79.910,386.833 78.825 C 394.473 75.566,397.892 65.792,393.722 59.128 C 393.508 58.786,393.333 58.430,393.333 58.337 C 393.333 58.243,393.258 58.167,393.167 58.167 C 393.075 58.167,393.000 58.065,393.000 57.941 C 393.000 56.790,388.431 53.346,385.917 52.602 C 385.367 52.439,384.692 52.219,384.417 52.111 C 384.043 51.966,374.618 51.896,347.111 51.833 L 310.305 51.750 309.508 49.417 C 308.734 47.147,308.167 45.650,307.855 45.046 C 307.771 44.883,307.281 43.887,306.766 42.833 C 305.810 40.875,305.393 40.093,304.677 38.917 C 304.171 38.083,301.264 33.958,300.965 33.647 C 300.843 33.520,300.571 33.194,300.360 32.922 C 300.150 32.649,299.402 31.796,298.697 31.024 C 297.993 30.253,297.379 29.573,297.333 29.515 C 297.287 29.456,296.462 28.696,295.500 27.827 C 294.015 26.486,293.396 25.966,292.083 24.958 C 291.992 24.888,291.531 24.531,291.059 24.165 C 290.588 23.799,290.119 23.500,290.018 23.500 C 289.916 23.500,289.833 23.442,289.833 23.371 C 289.833 23.300,289.571 23.101,289.250 22.928 C 288.929 22.756,288.667 22.551,288.667 22.474 C 288.667 22.397,288.590 22.333,288.496 22.333 C 288.402 22.333,287.850 22.033,287.270 21.667 C 286.689 21.300,286.135 21.000,286.038 21.000 C 285.941 21.000,285.836 20.942,285.806 20.870 C 285.752 20.745,281.289 18.500,281.094 18.500 C 281.040 18.500,280.678 18.357,280.290 18.182 C 278.981 17.592,275.888 16.539,274.333 16.155 C 274.012 16.075,273.262 15.889,272.667 15.741 C 271.466 15.442,271.082 15.369,267.833 14.821 C 265.603 14.444,265.424 14.440,246.958 14.376 L 228.333 14.311 228.308 65.572 " stroke="none" fill="#434343" fill-rule="evenodd"></path><path id="path1" d="M0.000 66.500 L 0.000 133.000 200.000 133.000 L 400.000 133.000 400.000 66.500 L 400.000 0.000 200.000 0.000 L 0.000 0.000 0.000 66.500 M169.732 14.264 C 169.788 14.409,169.833 18.459,169.833 23.264 L 169.833 32.000 186.720 32.000 C 204.403 32.000,203.890 31.982,205.583 32.660 C 206.892 33.184,207.333 33.402,207.333 33.525 C 207.333 33.603,207.419 33.667,207.525 33.667 C 208.023 33.667,210.342 35.878,211.122 37.096 C 211.339 37.436,212.087 38.968,212.376 39.667 C 214.444 44.659,211.153 51.840,205.917 53.762 C 205.733 53.829,205.208 54.036,204.750 54.221 C 203.938 54.550,203.479 54.561,186.917 54.654 L 169.917 54.750 169.874 65.875 L 169.831 77.000 185.746 77.000 C 205.360 77.000,205.071 76.969,208.458 79.450 C 210.096 80.650,212.333 83.786,212.333 84.882 C 212.333 85.028,212.399 85.187,212.478 85.237 C 212.558 85.286,212.669 85.684,212.724 86.122 C 212.780 86.559,212.875 87.319,212.936 87.811 C 213.196 89.923,212.239 93.138,210.743 95.177 C 209.373 97.043,206.105 99.333,204.812 99.333 C 204.586 99.333,204.306 99.427,204.192 99.542 C 204.028 99.705,200.294 99.760,186.908 99.798 L 169.833 99.847 169.833 108.640 C 169.833 115.257,169.784 117.483,169.633 117.633 C 169.373 117.894,141.851 117.919,139.091 117.661 C 136.887 117.456,133.809 117.040,133.000 116.840 C 132.679 116.760,131.817 116.570,131.083 116.417 C 128.761 115.931,125.220 114.827,123.083 113.923 C 121.565 113.280,120.611 112.840,119.257 112.154 C 117.466 111.248,116.614 110.785,116.500 110.655 C 116.454 110.602,116.304 110.509,116.167 110.447 C 115.872 110.316,115.749 110.236,113.725 108.878 C 112.327 107.939,110.211 106.403,110.000 106.172 C 109.954 106.122,109.429 105.673,108.833 105.173 C 106.640 103.336,103.646 100.166,101.604 97.519 C 100.665 96.301,98.333 92.900,98.333 92.747 C 98.333 92.706,98.083 92.278,97.777 91.795 C 97.471 91.312,96.717 89.867,96.102 88.583 C 95.487 87.300,94.912 86.120,94.825 85.961 C 94.738 85.801,94.667 85.572,94.667 85.450 C 94.667 85.329,94.479 84.840,94.250 84.365 C 94.021 83.890,93.833 83.364,93.833 83.195 C 93.833 83.027,93.785 82.840,93.725 82.781 C 93.566 82.622,93.012 80.963,93.005 80.626 C 93.000 80.352,91.073 80.333,56.875 80.279 C 18.286 80.218,19.424 80.245,17.250 79.333 C 17.067 79.256,16.598 79.060,16.208 78.898 C 15.819 78.735,15.500 78.542,15.500 78.468 C 15.500 78.394,15.350 78.333,15.167 78.333 C 14.983 78.333,14.833 78.258,14.833 78.167 C 14.833 78.075,14.747 78.000,14.642 78.000 C 13.244 78.000,9.220 72.649,8.491 69.819 C 8.015 67.971,7.918 62.840,8.353 62.571 C 8.434 62.521,8.500 62.300,8.500 62.079 C 8.500 61.678,8.673 61.218,9.471 59.500 C 11.012 56.181,14.624 53.118,18.167 52.124 C 20.392 51.500,20.388 51.500,57.052 51.500 C 90.652 51.500,93.000 51.482,93.000 51.219 C 93.000 50.857,94.325 46.967,94.519 46.758 C 94.600 46.671,94.667 46.499,94.667 46.376 C 94.667 45.966,96.514 42.165,97.890 39.744 C 98.488 38.693,99.752 36.742,99.867 36.694 C 99.940 36.664,100.000 36.566,100.000 36.476 C 100.000 35.729,107.059 27.906,109.317 26.153 C 109.720 25.840,110.282 25.387,110.567 25.148 C 111.080 24.715,114.176 22.503,115.031 21.958 C 116.658 20.922,120.596 18.833,120.925 18.833 C 121.058 18.833,121.167 18.758,121.167 18.667 C 121.167 18.575,121.280 18.500,121.419 18.500 C 121.558 18.500,121.801 18.428,121.961 18.339 C 122.313 18.143,123.539 17.628,124.333 17.343 C 124.654 17.227,125.067 17.074,125.250 17.003 C 125.707 16.824,128.033 16.104,129.250 15.764 C 130.931 15.294,131.361 15.195,132.917 14.920 C 133.742 14.774,134.736 14.582,135.127 14.494 C 135.518 14.406,136.381 14.324,137.044 14.314 C 137.707 14.303,138.475 14.237,138.750 14.167 C 139.860 13.884,169.622 13.977,169.732 14.264 M266.583 14.301 C 267.992 14.466,270.236 14.844,271.750 15.171 C 272.117 15.251,272.829 15.400,273.333 15.504 C 273.837 15.608,274.321 15.762,274.408 15.846 C 274.495 15.931,274.740 16.000,274.952 16.000 C 275.164 16.000,275.468 16.066,275.627 16.146 C 275.786 16.226,276.367 16.427,276.917 16.592 C 277.467 16.757,277.988 16.954,278.075 17.029 C 278.162 17.105,278.352 17.167,278.497 17.167 C 278.772 17.167,282.152 18.544,283.053 19.022 C 283.220 19.111,283.970 19.494,284.720 19.874 C 286.169 20.608,289.914 22.890,290.296 23.272 C 290.421 23.397,290.579 23.500,290.647 23.500 C 290.715 23.500,290.916 23.631,291.094 23.792 C 291.271 23.952,291.867 24.417,292.417 24.825 C 292.967 25.234,293.501 25.646,293.603 25.742 C 293.706 25.838,294.190 26.254,294.679 26.667 C 296.334 28.063,299.915 31.754,300.750 32.924 C 300.933 33.181,301.202 33.510,301.346 33.654 C 301.491 33.799,301.828 34.217,302.095 34.583 C 302.363 34.950,302.619 35.287,302.666 35.333 C 302.914 35.579,304.167 37.508,304.167 37.645 C 304.167 37.733,304.223 37.831,304.292 37.861 C 304.414 37.915,305.333 39.264,305.333 39.389 C 305.333 39.424,305.708 40.104,306.167 40.900 C 306.625 41.697,307.000 42.374,307.000 42.406 C 307.000 42.437,307.364 43.240,307.808 44.190 C 308.252 45.139,308.752 46.292,308.919 46.750 C 309.085 47.208,309.284 47.655,309.361 47.742 C 309.437 47.829,309.500 48.036,309.500 48.202 C 309.500 48.369,309.566 48.635,309.647 48.794 C 309.883 49.261,310.335 50.727,310.334 51.024 C 310.333 51.501,310.221 51.500,346.677 51.500 C 381.912 51.500,384.262 51.532,385.206 52.018 C 385.365 52.100,385.613 52.167,385.758 52.167 C 386.043 52.167,388.864 53.470,389.000 53.664 C 389.046 53.730,389.167 53.813,389.269 53.850 C 390.112 54.154,392.745 56.816,393.620 58.250 C 395.625 61.535,396.412 66.707,395.343 69.560 C 395.269 69.756,395.074 70.329,394.908 70.833 C 393.881 73.970,390.904 77.258,387.750 78.740 C 386.017 79.554,385.057 79.850,383.147 80.156 C 382.394 80.277,370.774 80.333,346.453 80.333 C 310.225 80.333,310.337 80.332,310.328 80.809 C 310.321 81.134,309.763 82.793,309.608 82.948 C 309.549 83.007,309.500 83.188,309.500 83.350 C 309.500 84.151,306.588 90.321,305.025 92.833 C 304.825 93.154,304.617 93.548,304.562 93.708 C 304.506 93.869,304.412 94.000,304.352 94.000 C 304.292 94.000,304.101 94.263,303.928 94.583 C 303.756 94.904,303.551 95.167,303.474 95.167 C 303.397 95.167,303.333 95.247,303.333 95.346 C 303.333 96.214,296.900 103.331,294.000 105.672 C 293.496 106.079,293.046 106.456,293.000 106.510 C 292.481 107.121,287.578 110.348,285.432 111.492 C 283.625 112.455,283.687 112.424,282.625 112.902 C 282.098 113.139,281.272 113.521,280.789 113.750 C 280.307 113.979,279.818 114.167,279.704 114.167 C 279.589 114.167,279.365 114.233,279.206 114.313 C 278.460 114.690,277.628 115.000,277.361 115.000 C 277.199 115.000,276.995 115.060,276.908 115.132 C 276.654 115.345,274.528 115.948,272.333 116.429 C 271.646 116.579,270.821 116.763,270.500 116.836 C 267.072 117.622,265.173 117.695,246.251 117.771 C 229.368 117.839,228.240 117.826,228.043 117.557 C 227.740 117.142,227.734 14.500,228.037 14.196 C 228.300 13.933,264.266 14.031,266.583 14.301 " stroke="none" fill="#fbfbfb" fill-rule="evenodd"></path><path id="path2" d="M228.082 65.833 C 228.082 94.112,228.101 105.681,228.125 91.542 C 228.148 77.402,228.148 54.265,228.125 40.125 C 228.101 25.985,228.082 37.554,228.082 65.833 M395.555 65.750 C 395.555 66.392,395.586 66.634,395.622 66.288 C 395.658 65.942,395.657 65.417,395.620 65.121 C 395.583 64.825,395.554 65.108,395.555 65.750 M39.458 80.125 C 49.290 80.149,65.377 80.149,75.208 80.125 C 85.040 80.101,76.996 80.082,57.333 80.082 C 37.671 80.082,29.627 80.101,39.458 80.125 M328.555 80.125 C 338.439 80.149,354.564 80.149,364.388 80.125 C 374.212 80.101,366.125 80.082,346.417 80.082 C 326.708 80.082,318.671 80.101,328.555 80.125 M212.705 88.333 C 212.705 88.654,212.740 88.785,212.782 88.625 C 212.823 88.465,212.823 88.202,212.782 88.042 C 212.740 87.881,212.705 88.013,212.705 88.333 M138.542 117.448 C 138.702 117.490,138.965 117.490,139.125 117.448 C 139.285 117.406,139.154 117.372,138.833 117.372 C 138.512 117.372,138.381 117.406,138.542 117.448 M228.309 117.542 C 228.378 117.612,236.118 117.649,245.509 117.626 L 262.583 117.583 245.383 117.500 C 235.923 117.454,228.240 117.473,228.309 117.542 M147.971 117.625 C 151.942 117.650,158.392 117.650,162.304 117.625 C 166.216 117.600,162.967 117.580,155.083 117.580 C 147.200 117.580,143.999 117.600,147.971 117.625 " stroke="none" fill="#9c9c9c" fill-rule="evenodd"></path><path id="path3" d="M138.758 14.145 C 138.298 14.243,163.332 14.219,167.167 14.117 C 168.129 14.092,162.242 14.064,154.083 14.055 C 145.925 14.046,139.029 14.087,138.758 14.145 M169.384 14.208 C 169.642 14.399,169.670 15.181,169.708 23.250 L 169.750 32.083 186.833 32.175 C 196.229 32.226,204.142 32.320,204.417 32.385 C 204.859 32.489,204.850 32.475,204.333 32.264 C 203.841 32.063,201.101 32.023,186.792 32.013 L 169.833 32.000 169.833 23.264 C 169.833 14.300,169.818 14.000,169.367 14.000 C 169.135 14.000,169.138 14.026,169.384 14.208 M228.033 14.200 C 227.767 14.466,227.740 117.013,228.006 117.511 C 228.183 117.842,261.710 118.015,263.833 117.696 C 264.246 117.634,256.448 117.606,246.504 117.634 C 229.465 117.682,228.413 117.668,228.213 117.394 C 227.935 117.014,227.895 14.841,228.173 14.322 C 228.370 13.953,228.322 13.911,228.033 14.200 M230.333 14.117 C 234.150 14.218,265.369 14.243,264.909 14.145 C 264.638 14.087,256.354 14.046,246.500 14.055 C 236.646 14.064,229.371 14.092,230.333 14.117 M135.250 14.500 C 135.067 14.579,134.654 14.656,134.333 14.671 C 134.012 14.686,133.375 14.801,132.917 14.927 C 131.975 15.185,132.353 15.157,134.500 14.810 C 135.096 14.714,135.996 14.577,136.500 14.506 L 137.417 14.377 136.500 14.367 C 135.996 14.361,135.433 14.421,135.250 14.500 M267.500 14.593 C 269.306 14.882,270.125 14.872,268.583 14.581 C 267.942 14.459,267.117 14.361,266.750 14.363 C 266.327 14.365,266.602 14.449,267.500 14.593 M270.167 15.000 C 270.396 15.073,270.733 15.136,270.917 15.138 L 271.250 15.143 270.917 15.000 C 270.733 14.921,270.396 14.859,270.167 14.862 L 269.750 14.867 270.167 15.000 M130.833 15.333 C 130.696 15.422,130.396 15.505,130.167 15.517 C 129.938 15.529,129.866 15.570,130.007 15.608 C 130.148 15.646,130.673 15.568,131.173 15.433 C 131.871 15.246,131.967 15.187,131.583 15.180 C 131.308 15.176,130.971 15.244,130.833 15.333 M271.347 15.228 C 271.385 15.262,271.717 15.339,272.083 15.401 C 272.561 15.481,272.679 15.464,272.500 15.342 C 272.275 15.189,271.180 15.080,271.347 15.228 M273.583 15.740 C 274.596 16.038,274.606 16.039,274.408 15.842 C 274.321 15.755,273.912 15.641,273.500 15.589 L 272.750 15.494 273.583 15.740 M129.000 15.833 C 128.778 15.977,128.778 15.995,129.000 15.995 C 129.137 15.995,129.362 15.922,129.500 15.833 C 129.722 15.690,129.722 15.672,129.500 15.672 C 129.362 15.672,129.137 15.744,129.000 15.833 M127.500 16.260 C 127.179 16.382,127.029 16.484,127.167 16.488 C 127.304 16.492,127.717 16.387,128.083 16.255 C 128.450 16.123,128.600 16.020,128.417 16.027 C 128.233 16.034,127.821 16.139,127.500 16.260 M275.083 16.167 C 275.542 16.364,275.705 16.364,275.583 16.167 C 275.527 16.075,275.316 16.005,275.115 16.012 C 274.763 16.023,274.762 16.029,275.083 16.167 M276.417 16.588 C 276.783 16.720,277.158 16.823,277.250 16.817 C 277.546 16.798,276.428 16.348,276.083 16.348 C 275.900 16.348,276.050 16.456,276.417 16.588 M124.167 17.374 C 123.486 17.676,122.439 18.110,122.101 18.229 C 121.928 18.291,121.822 18.377,121.866 18.421 C 121.910 18.465,122.652 18.203,123.515 17.839 C 124.377 17.475,124.971 17.179,124.833 17.183 C 124.696 17.186,124.396 17.272,124.167 17.374 M279.908 17.837 C 280.820 18.195,281.590 18.465,281.619 18.436 C 281.704 18.352,278.764 17.166,278.494 17.175 C 278.360 17.180,278.996 17.478,279.908 17.837 M119.333 19.526 C 117.496 20.509,117.496 20.662,119.333 19.742 C 121.107 18.854,121.149 18.829,120.819 18.845 C 120.690 18.852,120.021 19.158,119.333 19.526 M282.514 18.896 C 282.667 19.034,284.000 19.669,284.000 19.603 C 284.000 19.490,282.832 18.833,282.629 18.833 C 282.528 18.833,282.476 18.862,282.514 18.896 M286.178 20.850 C 288.173 21.988,291.316 24.096,292.792 25.285 C 293.181 25.599,293.498 25.794,293.496 25.719 C 293.494 25.645,293.073 25.283,292.560 24.917 C 292.046 24.550,291.429 24.081,291.188 23.875 C 290.947 23.669,290.699 23.500,290.637 23.500 C 290.575 23.500,290.424 23.400,290.302 23.278 C 289.989 22.965,286.977 21.080,285.562 20.312 C 283.555 19.222,283.985 19.597,286.178 20.850 M117.074 20.745 C 116.896 20.879,116.825 20.989,116.917 20.989 C 117.008 20.989,117.229 20.879,117.407 20.745 C 117.585 20.610,117.655 20.500,117.564 20.500 C 117.472 20.500,117.251 20.610,117.074 20.745 M114.363 22.403 C 113.508 22.983,112.721 23.552,112.613 23.666 C 112.505 23.781,113.140 23.397,114.024 22.813 C 114.907 22.228,115.770 21.661,115.940 21.551 C 116.111 21.442,116.175 21.352,116.083 21.351 C 115.992 21.350,115.217 21.823,114.363 22.403 M111.292 24.586 C 110.765 25.000,110.333 25.380,110.333 25.430 C 110.333 25.481,110.783 25.169,111.333 24.736 C 112.217 24.042,112.439 23.833,112.292 23.833 C 112.269 23.833,111.819 24.172,111.292 24.586 M109.247 26.192 C 106.656 28.354,99.698 36.086,100.038 36.427 C 100.077 36.465,100.717 35.683,101.461 34.689 C 103.489 31.978,106.174 29.108,109.083 26.540 C 110.400 25.378,110.514 25.135,109.247 26.192 M293.667 25.874 C 293.667 25.924,294.206 26.442,294.866 27.025 C 295.526 27.607,295.998 27.972,295.915 27.835 C 295.832 27.699,295.547 27.404,295.281 27.180 C 295.014 26.956,294.709 26.693,294.601 26.595 C 294.022 26.066,293.667 25.792,293.667 25.874 M296.167 28.125 C 296.167 28.289,297.325 29.400,297.404 29.312 C 297.435 29.278,297.170 28.967,296.814 28.620 C 296.458 28.274,296.167 28.051,296.167 28.125 M297.943 30.000 C 298.188 30.275,298.452 30.500,298.529 30.500 C 298.606 30.500,298.455 30.275,298.192 30.000 C 297.929 29.725,297.665 29.500,297.606 29.500 C 297.546 29.500,297.698 29.725,297.943 30.000 M299.178 31.241 C 299.414 31.521,299.807 32.000,300.053 32.304 C 300.299 32.609,300.500 32.780,300.500 32.683 C 300.500 32.587,300.106 32.109,299.625 31.620 C 299.144 31.132,298.943 30.962,299.178 31.241 M206.322 33.095 C 206.636 33.231,206.993 33.425,207.114 33.525 C 207.234 33.625,207.333 33.637,207.333 33.551 C 207.333 33.377,206.270 32.830,205.953 32.840 C 205.841 32.843,206.007 32.958,206.322 33.095 M302.288 35.125 C 302.894 35.927,303.537 36.830,303.716 37.132 C 303.895 37.434,304.076 37.646,304.119 37.603 C 304.185 37.537,302.920 35.571,302.658 35.333 C 302.608 35.287,302.314 34.894,302.005 34.458 C 301.696 34.023,301.386 33.667,301.315 33.667 C 301.244 33.667,301.682 34.323,302.288 35.125 M208.824 34.723 C 209.424 35.360,209.500 35.415,209.500 35.208 C 209.500 35.140,209.219 34.865,208.875 34.598 L 208.250 34.113 208.824 34.723 M209.667 35.401 C 209.667 35.569,210.884 37.005,210.961 36.928 C 210.996 36.893,210.874 36.689,210.689 36.474 C 210.505 36.259,210.199 35.903,210.010 35.683 C 209.821 35.463,209.667 35.336,209.667 35.401 M98.869 38.112 C 98.385 38.900,98.016 39.572,98.050 39.605 C 98.084 39.639,98.532 38.992,99.047 38.167 C 99.562 37.342,99.931 36.670,99.866 36.673 C 99.802 36.676,99.354 37.324,98.869 38.112 M211.368 37.824 C 211.565 38.194,211.751 38.471,211.781 38.442 C 211.860 38.362,211.338 37.356,211.161 37.246 C 211.078 37.195,211.171 37.455,211.368 37.824 M304.700 38.668 C 304.985 39.128,305.248 39.475,305.283 39.440 C 305.371 39.351,304.445 37.845,304.299 37.839 C 304.234 37.836,304.414 38.209,304.700 38.668 M211.847 38.719 C 211.840 38.794,211.909 38.996,212.001 39.169 C 212.093 39.341,212.276 39.880,212.407 40.366 C 212.586 41.034,212.645 41.128,212.645 40.750 C 212.646 40.311,211.883 38.369,211.847 38.719 M306.721 42.330 C 307.458 43.795,308.085 44.970,308.114 44.941 C 308.143 44.912,307.904 44.349,307.583 43.690 C 307.263 43.031,307.000 42.464,307.000 42.430 C 307.000 42.334,305.486 39.667,305.431 39.667 C 305.404 39.667,305.984 40.865,306.721 42.330 M97.719 40.042 C 97.425 40.499,97.164 41.053,97.217 41.106 C 97.248 41.137,97.433 40.863,97.628 40.498 C 97.959 39.878,98.020 39.574,97.719 40.042 M96.719 41.875 C 96.137 42.963,95.482 44.371,95.534 44.422 C 95.563 44.452,95.942 43.768,96.375 42.904 C 97.107 41.446,97.372 40.654,96.719 41.875 M212.716 43.350 C 212.708 44.400,212.757 44.952,212.840 44.750 C 213.011 44.333,213.019 42.359,212.852 41.933 C 212.784 41.759,212.722 42.396,212.716 43.350 M94.999 45.419 C 94.810 45.859,94.690 46.301,94.732 46.401 C 94.777 46.511,94.812 46.498,94.820 46.367 C 94.827 46.248,94.983 45.841,95.166 45.463 C 95.348 45.085,95.463 44.740,95.420 44.697 C 95.377 44.655,95.187 44.979,94.999 45.419 M308.167 45.217 C 308.167 45.488,309.483 48.496,309.490 48.242 C 309.496 48.054,309.439 47.829,309.363 47.742 C 309.288 47.655,309.019 47.040,308.765 46.375 C 308.381 45.368,308.167 44.954,308.167 45.217 M212.355 46.340 C 212.020 47.686,210.914 49.663,209.775 50.949 C 209.222 51.573,209.052 51.821,209.396 51.500 C 211.025 49.981,212.834 46.742,212.634 45.704 C 212.605 45.553,212.479 45.839,212.355 46.340 M94.396 46.934 C 94.334 47.108,94.183 47.503,94.059 47.812 C 93.935 48.121,93.837 48.459,93.840 48.562 C 93.844 48.665,94.032 48.306,94.257 47.764 C 94.482 47.221,94.631 46.742,94.587 46.698 C 94.544 46.655,94.458 46.761,94.396 46.934 M93.351 49.900 C 93.158 50.497,93.003 51.083,93.007 51.202 C 93.011 51.320,93.203 50.865,93.434 50.191 C 93.665 49.516,93.819 48.930,93.778 48.889 C 93.736 48.847,93.544 49.302,93.351 49.900 M309.849 49.750 C 309.843 49.842,309.946 50.217,310.079 50.583 C 310.211 50.950,310.319 51.100,310.319 50.917 C 310.318 50.572,309.869 49.454,309.849 49.750 M310.575 51.539 C 310.695 51.606,327.230 51.681,347.319 51.705 C 367.409 51.730,383.577 51.694,383.249 51.626 C 382.473 51.465,310.288 51.378,310.575 51.539 M20.365 51.642 C 20.014 51.741,74.646 51.725,87.583 51.622 C 90.608 51.598,76.808 51.568,56.917 51.556 C 37.025 51.543,20.577 51.582,20.365 51.642 M17.870 52.177 C 16.860 52.525,15.126 53.349,15.216 53.438 C 15.249 53.471,15.656 53.314,16.121 53.090 C 16.587 52.865,17.481 52.522,18.109 52.327 C 18.736 52.132,19.325 51.947,19.417 51.916 C 19.508 51.885,19.396 51.863,19.167 51.866 C 18.938 51.870,18.354 52.010,17.870 52.177 M384.181 51.893 C 384.365 52.051,385.340 52.146,385.248 51.997 C 385.193 51.907,384.914 51.833,384.629 51.833 C 384.344 51.833,384.142 51.860,384.181 51.893 M208.083 52.431 C 207.808 52.651,207.658 52.830,207.750 52.827 C 207.956 52.821,208.739 52.183,208.649 52.094 C 208.613 52.059,208.358 52.210,208.083 52.431 M386.083 52.421 C 386.918 52.722,387.032 52.721,386.500 52.417 C 386.271 52.286,385.933 52.179,385.750 52.180 C 385.567 52.181,385.717 52.289,386.083 52.421 M387.649 53.089 C 388.052 53.319,388.415 53.474,388.457 53.432 C 388.537 53.352,387.271 52.665,387.048 52.669 C 386.976 52.670,387.246 52.859,387.649 53.089 M206.333 53.431 C 206.074 53.575,206.015 53.663,206.176 53.664 C 206.319 53.666,206.582 53.557,206.760 53.422 C 207.164 53.116,206.890 53.122,206.333 53.431 M13.833 54.314 C 13.237 54.760,12.450 55.450,12.083 55.849 C 11.455 56.532,11.470 56.525,12.335 55.732 C 12.840 55.269,13.646 54.608,14.126 54.263 C 14.877 53.724,15.130 53.492,14.958 53.503 C 14.935 53.504,14.429 53.869,13.833 54.314 M389.616 54.236 C 389.873 54.457,390.113 54.609,390.149 54.573 C 390.229 54.493,389.467 53.847,389.282 53.839 C 389.209 53.836,389.359 54.014,389.616 54.236 M204.455 54.100 C 204.400 54.155,203.956 54.258,203.469 54.329 C 202.606 54.455,202.601 54.459,203.273 54.479 C 203.652 54.491,204.214 54.390,204.523 54.257 C 204.831 54.123,204.965 54.010,204.819 54.007 C 204.674 54.003,204.510 54.045,204.455 54.100 M169.778 54.611 C 169.639 54.750,169.629 76.709,169.768 77.070 C 169.859 77.308,171.475 77.331,186.476 77.314 C 195.610 77.303,202.858 77.237,202.583 77.167 C 202.308 77.097,194.827 77.031,185.957 77.020 L 169.831 77.000 169.874 65.875 L 169.917 54.750 186.167 54.665 L 202.417 54.581 186.153 54.540 C 177.208 54.518,169.839 54.550,169.778 54.611 M391.377 55.759 C 391.996 56.396,392.702 57.198,392.946 57.542 C 393.189 57.886,393.423 58.132,393.467 58.088 C 393.628 57.927,391.427 55.449,390.583 54.842 C 390.400 54.710,390.757 55.122,391.377 55.759 M10.506 57.677 C 10.117 58.232,9.835 58.724,9.880 58.769 C 9.925 58.814,10.132 58.566,10.341 58.217 C 10.549 57.869,10.909 57.377,11.141 57.125 C 11.373 56.873,11.484 56.667,11.389 56.667 C 11.293 56.667,10.896 57.121,10.506 57.677 M393.868 58.991 C 394.065 59.360,394.251 59.638,394.281 59.608 C 394.360 59.529,393.838 58.523,393.661 58.413 C 393.578 58.362,393.671 58.622,393.868 58.991 M9.345 59.682 C 9.155 60.075,9.004 60.476,9.009 60.573 C 9.014 60.670,9.201 60.381,9.424 59.929 C 9.648 59.478,9.799 59.077,9.761 59.038 C 9.722 59.000,9.535 59.289,9.345 59.682 M394.680 60.606 C 394.673 60.710,394.776 61.047,394.910 61.356 C 395.044 61.664,395.153 61.804,395.153 61.667 C 395.151 61.359,394.699 60.343,394.680 60.606 M8.694 61.257 C 8.587 61.491,8.505 61.848,8.511 62.050 C 8.518 62.268,8.616 62.117,8.754 61.673 C 9.016 60.834,8.985 60.619,8.694 61.257 M395.181 62.167 C 395.186 62.304,395.255 62.567,395.333 62.750 L 395.477 63.083 395.486 62.750 C 395.491 62.567,395.422 62.304,395.333 62.167 C 395.190 61.944,395.173 61.944,395.181 62.167 M8.278 62.611 C 8.217 62.672,8.175 63.028,8.185 63.403 L 8.203 64.083 8.348 63.344 C 8.495 62.593,8.478 62.411,8.278 62.611 M395.581 65.833 C 395.580 68.184,395.593 68.300,395.726 67.125 C 395.810 66.387,395.811 65.279,395.728 64.542 C 395.596 63.367,395.583 63.485,395.581 65.833 M8.056 65.833 C 8.056 66.521,8.085 66.802,8.121 66.458 C 8.157 66.115,8.157 65.552,8.121 65.208 C 8.085 64.865,8.056 65.146,8.056 65.833 M8.186 68.284 C 8.175 68.577,8.232 68.990,8.312 69.200 C 8.392 69.411,8.593 70.019,8.758 70.550 C 8.924 71.082,9.122 71.556,9.198 71.603 C 9.275 71.650,9.195 71.290,9.021 70.803 C 8.739 70.013,8.481 69.072,8.275 68.083 C 8.233 67.885,8.197 67.966,8.186 68.284 M395.262 69.095 C 395.201 69.339,395.188 69.577,395.234 69.623 C 395.280 69.668,395.367 69.506,395.429 69.262 C 395.490 69.018,395.503 68.780,395.457 68.734 C 395.411 68.689,395.323 68.851,395.262 69.095 M394.812 70.634 C 394.663 71.064,394.483 71.567,394.413 71.750 C 394.328 71.969,394.340 72.026,394.448 71.917 C 394.670 71.690,395.208 70.205,395.139 70.009 C 395.108 69.922,394.961 70.203,394.812 70.634 M393.850 72.840 C 393.643 73.208,393.217 73.845,392.905 74.255 C 392.592 74.665,392.395 75.000,392.468 75.000 C 392.633 75.000,394.398 72.342,394.298 72.243 C 394.259 72.203,394.057 72.472,393.850 72.840 M9.834 72.869 C 9.832 73.248,11.925 76.000,12.215 76.000 C 12.287 76.000,12.066 75.696,11.722 75.325 C 11.379 74.954,10.813 74.222,10.466 73.700 C 10.119 73.177,9.834 72.804,9.834 72.869 M391.500 75.917 C 391.095 76.329,390.801 76.667,390.847 76.667 C 390.893 76.667,391.262 76.329,391.667 75.917 C 392.072 75.504,392.365 75.167,392.319 75.167 C 392.274 75.167,391.905 75.504,391.500 75.917 M12.683 76.519 C 13.752 77.458,14.469 78.000,14.642 78.000 C 14.747 78.000,14.833 78.075,14.833 78.167 C 14.833 78.258,14.965 78.333,15.125 78.332 C 15.285 78.331,14.967 78.042,14.417 77.689 C 13.867 77.336,13.235 76.849,13.013 76.607 C 12.790 76.365,12.535 76.167,12.445 76.167 C 12.356 76.167,12.463 76.325,12.683 76.519 M390.472 76.812 C 390.442 76.893,389.973 77.268,389.431 77.646 C 388.888 78.024,388.502 78.333,388.571 78.333 C 388.781 78.333,390.667 76.962,390.667 76.809 C 390.667 76.624,390.543 76.626,390.472 76.812 M204.500 77.651 C 206.714 78.258,208.238 79.216,210.006 81.108 C 211.106 82.285,211.130 82.272,210.166 81.020 C 208.934 79.420,205.298 77.308,203.836 77.343 C 203.605 77.349,203.904 77.487,204.500 77.651 M15.500 78.485 C 15.500 78.617,16.824 79.233,16.911 79.142 C 16.941 79.110,16.636 78.922,16.233 78.726 C 15.830 78.529,15.500 78.421,15.500 78.485 M387.459 78.710 C 387.116 78.901,386.859 79.082,386.889 79.111 C 386.959 79.181,388.333 78.516,388.333 78.413 C 388.333 78.274,388.101 78.353,387.459 78.710 M18.500 79.736 C 18.821 79.867,19.308 79.972,19.583 79.968 C 20.076 79.962,20.075 79.960,19.500 79.823 C 18.130 79.498,17.861 79.475,18.500 79.736 M385.134 79.588 C 385.086 79.637,384.717 79.741,384.315 79.820 C 383.747 79.931,383.695 79.965,384.083 79.969 C 384.602 79.975,385.953 79.535,385.486 79.513 C 385.341 79.506,385.183 79.540,385.134 79.588 M20.865 80.192 C 21.077 80.251,37.412 80.290,57.167 80.278 C 76.921 80.265,90.908 80.236,88.250 80.211 C 76.970 80.109,20.513 80.093,20.865 80.192 M346.433 80.125 C 322.169 80.154,310.550 80.223,310.410 80.339 C 310.296 80.433,310.164 80.715,310.117 80.964 C 310.070 81.213,309.983 81.604,309.923 81.833 C 309.854 82.100,309.908 82.049,310.074 81.689 C 310.217 81.381,310.333 80.995,310.333 80.832 C 310.333 80.328,309.955 80.334,346.639 80.314 C 366.317 80.303,382.642 80.237,382.917 80.167 L 383.417 80.039 382.833 80.061 C 382.512 80.073,366.132 80.102,346.433 80.125 M93.013 80.689 C 93.006 80.839,93.110 81.214,93.243 81.523 C 93.549 82.225,93.554 81.789,93.250 81.000 C 93.126 80.679,93.020 80.539,93.013 80.689 M211.368 82.991 C 211.565 83.360,211.751 83.638,211.781 83.608 C 211.860 83.529,211.338 82.523,211.161 82.413 C 211.078 82.362,211.171 82.622,211.368 82.991 M93.846 83.250 C 93.845 83.599,94.317 84.557,94.327 84.227 C 94.331 84.123,94.224 83.786,94.090 83.477 C 93.922 83.090,93.846 83.020,93.846 83.250 M309.031 84.281 C 308.575 85.519,308.678 85.622,309.167 84.417 C 309.374 83.906,309.507 83.452,309.463 83.408 C 309.419 83.363,309.225 83.756,309.031 84.281 M211.833 83.864 C 211.833 83.918,211.950 84.214,212.092 84.523 C 212.349 85.081,212.349 85.082,212.246 84.583 C 212.157 84.152,211.833 83.588,211.833 83.864 M212.433 85.611 C 212.587 86.250,212.667 86.310,212.667 85.788 C 212.667 85.549,212.589 85.305,212.493 85.246 C 212.380 85.176,212.359 85.301,212.433 85.611 M94.677 85.433 C 94.671 85.533,94.773 85.833,94.904 86.099 C 95.034 86.366,95.375 87.099,95.661 87.729 C 95.947 88.359,96.214 88.842,96.253 88.802 C 96.292 88.763,96.079 88.210,95.780 87.574 C 95.480 86.937,95.111 86.154,94.961 85.833 C 94.811 85.513,94.683 85.332,94.677 85.433 M308.200 86.329 C 308.008 86.790,307.885 87.167,307.925 87.167 C 308.049 87.167,308.715 85.659,308.629 85.573 C 308.584 85.529,308.391 85.869,308.200 86.329 M212.725 88.417 C 212.723 89.461,212.774 90.071,212.844 89.833 C 213.001 89.301,213.003 87.543,212.847 87.000 C 212.781 86.768,212.727 87.397,212.725 88.417 M307.612 87.588 C 307.550 87.769,307.455 88.029,307.399 88.167 C 307.344 88.304,307.425 88.246,307.579 88.037 C 307.732 87.829,307.828 87.568,307.792 87.458 C 307.754 87.346,307.676 87.403,307.612 87.588 M96.333 89.024 C 96.333 89.226,97.032 90.523,97.103 90.452 C 97.147 90.408,97.021 90.082,96.824 89.728 C 96.449 89.056,96.333 88.890,96.333 89.024 M306.344 90.211 C 306.041 90.782,305.874 91.175,305.971 91.083 C 306.205 90.865,307.030 89.308,306.954 89.231 C 306.921 89.199,306.647 89.640,306.344 90.211 M97.167 90.714 C 97.167 90.877,98.178 92.500,98.280 92.500 C 98.327 92.500,98.160 92.144,97.910 91.708 C 97.434 90.879,97.167 90.522,97.167 90.714 M212.351 91.506 C 211.750 93.891,210.046 96.234,207.764 97.816 C 206.660 98.582,206.626 98.740,207.712 98.056 C 210.063 96.574,212.927 92.393,212.634 90.871 C 212.605 90.720,212.478 91.006,212.351 91.506 M305.260 92.133 C 304.236 93.812,304.139 94.000,304.297 94.000 C 304.387 94.000,304.509 93.869,304.567 93.708 C 304.672 93.415,304.751 93.278,305.477 92.114 C 305.694 91.767,305.841 91.452,305.805 91.416 C 305.768 91.379,305.523 91.702,305.260 92.133 M98.333 92.716 C 98.333 92.888,100.994 96.810,101.194 96.933 C 101.287 96.991,100.744 96.111,99.986 94.978 C 98.529 92.798,98.333 92.530,98.333 92.716 M303.731 94.589 C 303.579 94.821,303.488 95.043,303.528 95.083 C 303.568 95.124,303.732 94.934,303.893 94.662 C 304.249 94.059,304.117 94.000,303.731 94.589 M301.964 97.047 C 299.686 100.109,297.212 102.727,294.167 105.298 C 291.812 107.287,291.280 107.782,292.250 107.082 C 292.617 106.817,292.954 106.558,293.000 106.507 C 293.046 106.455,293.496 106.079,294.000 105.672 C 295.476 104.481,298.758 101.213,300.198 99.500 C 301.838 97.549,303.391 95.502,303.300 95.411 C 303.263 95.374,302.662 96.110,301.964 97.047 M101.995 98.034 C 103.576 100.020,105.975 102.667,106.194 102.667 C 106.273 102.667,105.896 102.198,105.354 101.625 C 103.694 99.867,103.042 99.122,102.298 98.132 C 101.905 97.608,101.521 97.177,101.444 97.173 C 101.368 97.170,101.616 97.557,101.995 98.034 M206.266 98.625 C 206.198 98.694,205.792 98.875,205.363 99.029 C 204.934 99.182,204.708 99.313,204.861 99.320 C 205.171 99.335,206.667 98.729,206.667 98.589 C 206.667 98.458,206.408 98.481,206.266 98.625 M203.583 99.500 C 203.286 99.628,203.298 99.644,203.698 99.655 C 203.945 99.661,204.193 99.592,204.250 99.500 C 204.373 99.301,204.046 99.301,203.583 99.500 M169.778 99.778 C 169.717 99.839,169.667 103.805,169.667 108.591 C 169.667 115.925,169.629 117.324,169.429 117.490 C 169.248 117.640,165.518 117.675,153.970 117.635 C 145.599 117.607,139.125 117.633,139.583 117.694 C 141.204 117.908,169.415 117.852,169.633 117.633 C 169.784 117.483,169.833 115.256,169.833 108.634 L 169.833 99.835 186.292 99.792 L 202.750 99.748 186.319 99.708 C 177.283 99.685,169.839 99.717,169.778 99.778 M107.022 103.534 C 107.422 103.942,108.237 104.682,108.833 105.179 C 109.429 105.675,109.954 106.123,110.000 106.174 C 110.046 106.226,110.383 106.483,110.750 106.746 C 111.601 107.356,111.008 106.772,109.661 105.673 C 109.160 105.265,108.276 104.477,107.698 103.923 C 106.465 102.744,105.961 102.454,107.022 103.534 M112.000 107.659 C 112.321 107.946,112.846 108.333,113.167 108.521 C 113.953 108.979,113.466 108.537,112.333 107.763 C 111.506 107.198,111.473 107.188,112.000 107.659 M289.750 108.671 C 288.833 109.297,287.391 110.204,286.545 110.686 C 285.699 111.168,285.033 111.589,285.066 111.622 C 285.205 111.760,290.075 108.771,291.083 107.929 C 291.893 107.254,291.523 107.459,289.750 108.671 M114.333 109.244 C 114.333 109.375,115.354 110.035,115.433 109.956 C 115.478 109.911,115.249 109.718,114.924 109.526 C 114.599 109.335,114.333 109.208,114.333 109.244 M117.558 111.265 C 117.907 111.502,118.227 111.661,118.270 111.619 C 118.349 111.540,117.239 110.833,117.035 110.833 C 116.973 110.833,117.208 111.028,117.558 111.265 M118.500 111.734 C 118.500 111.857,121.687 113.368,121.771 113.285 C 121.819 113.237,119.807 112.220,118.625 111.694 C 118.556 111.664,118.500 111.682,118.500 111.734 M284.000 112.083 C 283.587 112.304,283.339 112.488,283.449 112.492 C 283.653 112.500,284.833 111.853,284.833 111.734 C 284.833 111.638,284.826 111.641,284.000 112.083 M282.250 112.913 C 281.792 113.129,281.496 113.312,281.594 113.319 C 281.803 113.336,283.167 112.695,283.167 112.579 C 283.167 112.476,283.213 112.460,282.250 112.913 M123.061 113.918 C 123.323 114.055,123.623 114.164,123.727 114.161 C 124.000 114.152,123.132 113.679,122.833 113.674 C 122.696 113.671,122.798 113.781,123.061 113.918 M279.917 113.923 C 279.535 114.097,279.496 114.152,279.750 114.154 C 279.933 114.155,280.229 114.046,280.407 113.911 C 280.804 113.611,280.586 113.616,279.917 113.923 M125.311 114.757 C 125.619 114.890,125.957 114.997,126.061 114.993 C 126.165 114.990,125.998 114.877,125.689 114.743 C 125.381 114.610,125.043 114.503,124.939 114.507 C 124.835 114.510,125.002 114.623,125.311 114.757 M277.667 114.760 C 277.295 114.901,277.205 114.982,277.417 114.985 C 277.600 114.987,277.938 114.881,278.167 114.750 C 278.676 114.459,278.451 114.464,277.667 114.760 M126.333 115.069 C 126.333 115.167,128.443 115.836,128.702 115.820 C 128.820 115.813,128.392 115.628,127.750 115.408 C 126.559 115.002,126.333 114.948,126.333 115.069 M275.000 115.594 C 274.575 115.755,274.513 115.817,274.773 115.824 C 274.968 115.829,275.381 115.724,275.689 115.590 C 276.402 115.280,275.820 115.284,275.000 115.594 M129.333 116.000 C 129.471 116.089,129.696 116.162,129.833 116.162 C 130.056 116.162,130.056 116.144,129.833 116.000 C 129.696 115.911,129.471 115.838,129.333 115.838 C 129.111 115.838,129.111 115.856,129.333 116.000 M273.583 116.000 L 273.250 116.143 273.583 116.152 C 273.767 116.157,274.029 116.089,274.167 116.000 C 274.498 115.786,274.082 115.786,273.583 116.000 M131.083 116.428 C 131.542 116.556,132.104 116.655,132.333 116.649 C 132.563 116.644,132.300 116.537,131.750 116.413 C 130.450 116.120,130.012 116.130,131.083 116.428 M272.301 116.255 C 272.252 116.303,271.884 116.407,271.481 116.487 C 270.914 116.598,270.862 116.631,271.250 116.636 C 271.843 116.642,273.263 116.211,272.736 116.184 C 272.545 116.175,272.349 116.206,272.301 116.255 M133.000 116.825 C 133.137 116.918,133.469 116.996,133.736 116.997 C 134.377 117.001,134.243 116.904,133.417 116.766 C 132.939 116.686,132.821 116.703,133.000 116.825 M269.667 116.833 L 269.083 116.956 269.667 116.976 C 269.987 116.986,270.362 116.922,270.500 116.833 C 270.803 116.637,270.597 116.637,269.667 116.833 M135.500 117.249 C 136.096 117.378,136.996 117.477,137.500 117.469 L 138.417 117.453 137.333 117.331 C 136.737 117.264,135.837 117.165,135.333 117.111 L 134.417 117.013 135.500 117.249 M267.793 117.096 C 267.740 117.149,267.034 117.251,266.223 117.323 C 264.791 117.450,264.780 117.454,265.833 117.469 C 266.943 117.486,269.415 117.051,268.403 117.017 C 268.120 117.008,267.846 117.043,267.793 117.096 " stroke="none" fill="#adadad" fill-rule="evenodd"></path><path id="path4" d="M154.875 14.292 C 166.270 14.326,169.334 14.379,169.338 14.543 C 169.341 14.657,169.359 18.644,169.380 23.403 C 169.404 28.990,169.476 32.075,169.583 32.111 C 169.828 32.193,169.722 14.684,169.477 14.389 C 169.325 14.206,166.709 14.174,154.855 14.207 L 140.417 14.248 154.875 14.292 M228.244 14.375 C 228.200 14.490,228.184 37.608,228.208 65.750 L 228.251 116.917 228.292 65.626 L 228.333 14.335 245.625 14.292 L 262.917 14.248 245.620 14.208 C 231.905 14.175,228.306 14.210,228.244 14.375 M138.542 14.455 C 138.885 14.491,139.448 14.491,139.792 14.455 C 140.135 14.419,139.854 14.389,139.167 14.389 C 138.479 14.389,138.198 14.419,138.542 14.455 M263.629 14.456 C 264.021 14.491,264.621 14.490,264.963 14.454 C 265.304 14.419,264.983 14.390,264.250 14.390 C 263.517 14.391,263.237 14.420,263.629 14.456 M135.083 14.753 C 134.442 14.867,134.142 14.965,134.417 14.970 C 134.692 14.975,135.479 14.881,136.167 14.761 C 136.856 14.640,137.155 14.543,136.833 14.544 C 136.512 14.544,135.725 14.639,135.083 14.753 M266.750 14.676 C 267.117 14.752,267.604 14.810,267.833 14.805 C 268.101 14.798,268.011 14.746,267.583 14.657 C 267.217 14.581,266.729 14.524,266.500 14.529 C 266.233 14.535,266.322 14.588,266.750 14.676 M268.542 14.948 C 268.702 14.990,268.965 14.990,269.125 14.948 C 269.285 14.906,269.154 14.872,268.833 14.872 C 268.512 14.872,268.381 14.906,268.542 14.948 M132.750 15.167 C 132.301 15.281,132.292 15.294,132.667 15.297 C 132.896 15.299,133.271 15.240,133.500 15.167 C 134.060 14.987,133.455 14.987,132.750 15.167 M269.917 15.167 C 270.100 15.245,270.475 15.306,270.750 15.302 L 271.250 15.294 270.750 15.167 C 270.475 15.097,270.100 15.036,269.917 15.031 L 269.583 15.023 269.917 15.167 M131.083 15.500 L 130.750 15.643 131.083 15.643 C 131.267 15.643,131.567 15.579,131.750 15.500 L 132.083 15.357 131.750 15.357 C 131.567 15.357,131.267 15.421,131.083 15.500 M271.667 15.500 C 271.804 15.589,272.067 15.657,272.250 15.652 L 272.583 15.643 272.250 15.500 C 271.752 15.286,271.335 15.286,271.667 15.500 M129.417 15.921 C 129.050 16.042,128.900 16.141,129.083 16.141 C 129.267 16.141,129.679 16.040,130.000 15.917 C 130.748 15.629,130.294 15.632,129.417 15.921 M273.417 15.921 C 273.783 16.054,274.196 16.157,274.333 16.151 C 274.684 16.137,273.490 15.693,273.083 15.687 C 272.900 15.684,273.050 15.789,273.417 15.921 M128.000 16.333 C 127.778 16.477,127.778 16.495,128.000 16.495 C 128.137 16.495,128.362 16.422,128.500 16.333 C 128.722 16.190,128.722 16.172,128.500 16.172 C 128.362 16.172,128.137 16.244,128.000 16.333 M275.000 16.333 C 275.137 16.422,275.362 16.495,275.500 16.495 C 275.722 16.495,275.722 16.477,275.500 16.333 C 275.362 16.244,275.137 16.172,275.000 16.172 C 274.778 16.172,274.778 16.190,275.000 16.333 M125.833 17.000 C 124.306 17.570,123.621 17.872,124.083 17.768 C 124.549 17.665,127.388 16.668,127.480 16.576 C 127.661 16.394,126.992 16.567,125.833 17.000 M278.811 17.590 C 279.119 17.724,279.419 17.831,279.477 17.827 C 279.694 17.815,278.740 17.345,278.500 17.346 C 278.362 17.346,278.502 17.456,278.811 17.590 M281.667 18.750 C 281.896 18.881,282.158 18.988,282.250 18.988 C 282.342 18.988,282.229 18.881,282.000 18.750 C 281.771 18.619,281.508 18.512,281.417 18.512 C 281.325 18.512,281.438 18.619,281.667 18.750 M282.500 19.083 C 282.500 19.162,283.829 19.833,283.985 19.833 C 284.132 19.833,283.451 19.416,282.958 19.204 C 282.706 19.096,282.500 19.041,282.500 19.083 M119.458 19.678 C 119.115 19.859,118.833 20.045,118.833 20.091 C 118.833 20.165,120.150 19.550,120.319 19.396 C 120.511 19.223,120.011 19.386,119.458 19.678 M287.285 21.670 C 287.855 22.035,288.380 22.333,288.452 22.332 C 288.524 22.331,288.112 22.031,287.535 21.665 C 286.958 21.299,286.433 21.002,286.368 21.003 C 286.303 21.005,286.716 21.305,287.285 21.670 M115.505 21.925 C 115.186 22.150,114.999 22.333,115.088 22.333 C 115.177 22.332,115.475 22.147,115.750 21.922 C 116.392 21.396,116.252 21.397,115.505 21.925 M113.750 23.098 L 113.250 23.528 113.792 23.169 C 114.090 22.972,114.333 22.778,114.333 22.739 C 114.333 22.614,114.263 22.657,113.750 23.098 M111.250 24.857 C 109.467 26.223,106.172 29.167,106.426 29.167 C 106.484 29.167,107.181 28.558,107.974 27.813 C 108.768 27.069,110.148 25.895,111.042 25.205 C 112.476 24.097,112.784 23.831,112.625 23.834 C 112.602 23.835,111.983 24.295,111.250 24.857 M291.153 24.227 C 291.375 24.501,292.000 24.914,292.000 24.787 C 292.000 24.755,291.756 24.551,291.458 24.333 C 291.123 24.087,291.007 24.047,291.153 24.227 M292.176 24.943 C 292.186 25.083,293.833 26.401,293.833 26.268 C 293.833 26.229,293.458 25.884,293.000 25.500 C 292.542 25.116,292.171 24.866,292.176 24.943 M294.573 26.955 C 294.933 27.343,295.264 27.624,295.309 27.580 C 295.353 27.536,295.357 27.481,295.318 27.458 C 295.278 27.435,294.947 27.154,294.581 26.834 L 293.917 26.250 294.573 26.955 M296.250 28.500 C 296.701 28.958,297.108 29.333,297.154 29.333 C 297.200 29.333,296.868 28.958,296.417 28.500 C 295.965 28.042,295.558 27.667,295.513 27.667 C 295.467 27.667,295.799 28.042,296.250 28.500 M105.667 29.811 C 105.438 30.065,104.916 30.624,104.507 31.053 C 104.098 31.482,103.801 31.833,103.847 31.833 C 103.893 31.833,104.482 31.271,105.156 30.583 C 105.829 29.896,106.314 29.337,106.232 29.341 C 106.150 29.346,105.896 29.557,105.667 29.811 M298.000 30.247 C 298.413 30.704,298.769 31.110,298.792 31.150 C 298.815 31.190,298.869 31.186,298.913 31.143 C 298.957 31.099,298.600 30.693,298.121 30.240 L 297.250 29.417 298.000 30.247 M299.671 32.066 C 299.995 32.442,300.387 32.933,300.542 33.157 C 300.698 33.380,300.863 33.526,300.908 33.481 C 300.953 33.436,300.561 32.945,300.037 32.390 C 299.512 31.836,299.348 31.690,299.671 32.066 M202.181 32.227 C 202.219 32.260,202.662 32.329,203.167 32.380 C 203.737 32.438,203.957 32.420,203.750 32.332 C 203.431 32.196,202.037 32.103,202.181 32.227 M102.541 33.349 C 102.106 33.907,101.721 34.451,101.686 34.557 C 101.606 34.795,101.579 34.826,102.649 33.458 C 103.133 32.840,103.485 32.333,103.431 32.333 C 103.377 32.333,102.977 32.790,102.541 33.349 M204.583 32.663 C 204.858 32.734,205.233 32.844,205.417 32.908 C 205.638 32.984,205.610 32.937,205.333 32.767 C 205.104 32.627,204.729 32.517,204.500 32.523 C 204.119 32.533,204.126 32.545,204.583 32.663 M205.847 33.063 C 206.018 33.217,207.333 33.831,207.333 33.757 C 207.333 33.662,206.076 33.000,205.896 33.000 C 205.831 33.000,205.809 33.028,205.847 33.063 M207.500 33.894 C 207.500 33.940,207.725 34.138,208.000 34.333 C 208.275 34.529,208.500 34.652,208.500 34.606 C 208.500 34.560,208.275 34.362,208.000 34.167 C 207.725 33.971,207.500 33.848,207.500 33.894 M209.342 35.425 C 209.750 35.889,210.117 36.242,210.159 36.211 C 210.200 36.180,209.866 35.801,209.417 35.369 L 208.600 34.583 209.342 35.425 M302.310 35.458 C 302.518 35.756,302.724 36.000,302.767 36.000 C 302.911 36.000,302.521 35.391,302.224 35.153 C 302.015 34.985,302.040 35.074,302.310 35.458 M100.376 36.208 C 100.005 36.676,99.318 37.863,99.473 37.767 C 99.648 37.658,100.708 36.000,100.602 36.000 C 100.568 36.000,100.467 36.094,100.376 36.208 M303.309 36.875 C 303.606 37.310,303.881 37.667,303.919 37.667 C 304.050 37.667,303.316 36.527,303.042 36.305 C 302.892 36.183,303.012 36.440,303.309 36.875 M210.836 37.199 C 210.833 37.350,211.512 38.500,211.604 38.500 C 211.643 38.500,211.564 38.294,211.427 38.042 C 211.087 37.414,210.839 37.060,210.836 37.199 M211.668 38.865 C 211.667 39.020,211.729 39.185,211.805 39.232 C 211.881 39.279,212.043 39.734,212.165 40.243 C 212.287 40.752,212.423 41.133,212.467 41.089 C 212.569 40.987,212.167 39.542,211.885 39.000 C 211.735 38.710,211.668 38.669,211.668 38.865 M97.686 40.502 C 97.480 40.868,97.347 41.167,97.390 41.167 C 97.502 41.167,98.191 39.969,98.120 39.898 C 98.086 39.864,97.891 40.136,97.686 40.502 M212.563 43.333 C 212.563 44.387,212.590 44.819,212.623 44.292 C 212.656 43.765,212.656 42.902,212.623 42.375 C 212.590 41.848,212.563 42.279,212.563 43.333 M306.704 42.625 C 306.916 43.117,307.333 43.798,307.333 43.652 C 307.333 43.495,306.662 42.167,306.583 42.167 C 306.541 42.167,306.596 42.373,306.704 42.625 M96.447 42.776 C 96.086 43.478,95.674 44.500,95.752 44.500 C 95.861 44.500,96.833 42.444,96.759 42.370 C 96.722 42.333,96.582 42.516,96.447 42.776 M307.678 44.667 C 307.678 44.804,307.787 45.062,307.922 45.240 C 308.233 45.652,308.230 45.381,307.917 44.833 C 307.779 44.592,307.678 44.522,307.678 44.667 M95.189 45.522 C 94.992 45.997,94.858 46.413,94.891 46.447 C 94.925 46.480,95.114 46.119,95.311 45.644 C 95.508 45.170,95.642 44.754,95.609 44.720 C 95.575 44.686,95.386 45.047,95.189 45.522 M212.262 45.929 C 212.201 46.173,212.183 46.405,212.222 46.444 C 212.261 46.483,212.343 46.316,212.405 46.071 C 212.466 45.827,212.484 45.595,212.445 45.556 C 212.406 45.517,212.323 45.684,212.262 45.929 M211.965 46.921 C 211.913 47.102,211.820 47.400,211.758 47.583 C 211.696 47.767,211.767 47.706,211.917 47.448 C 212.066 47.191,212.159 46.893,212.123 46.786 C 212.088 46.679,212.016 46.740,211.965 46.921 M309.342 48.750 C 309.340 48.842,309.446 49.217,309.579 49.583 C 309.711 49.950,309.822 50.127,309.826 49.977 C 309.830 49.828,309.724 49.453,309.590 49.144 C 309.456 48.836,309.345 48.658,309.342 48.750 M93.853 48.945 C 93.842 49.052,93.785 49.277,93.725 49.445 C 93.642 49.682,93.664 49.707,93.824 49.559 C 93.938 49.455,93.995 49.230,93.952 49.059 C 93.908 48.889,93.863 48.838,93.853 48.945 M93.464 50.167 C 93.407 50.396,93.313 50.771,93.254 51.000 C 93.188 51.259,93.249 51.199,93.413 50.842 C 93.559 50.526,93.653 50.151,93.623 50.009 C 93.588 49.846,93.528 49.905,93.464 50.167 M209.856 50.583 C 209.564 50.904,209.383 51.167,209.454 51.167 C 209.525 51.167,209.793 50.904,210.049 50.583 C 210.648 49.832,210.539 49.832,209.856 50.583 M310.195 51.500 C 310.268 51.721,314.434 51.750,346.347 51.751 L 382.417 51.751 346.517 51.709 C 318.128 51.675,310.564 51.622,310.365 51.458 C 310.158 51.287,310.127 51.295,310.195 51.500 M57.250 51.667 L 21.417 51.751 57.198 51.792 C 80.918 51.819,93.015 51.777,93.083 51.667 C 93.140 51.575,93.163 51.518,93.135 51.541 C 93.107 51.564,76.958 51.620,57.250 51.667 M20.125 51.951 C 20.331 51.991,20.669 51.991,20.875 51.951 C 21.081 51.911,20.912 51.879,20.500 51.879 C 20.087 51.879,19.919 51.911,20.125 51.951 M207.263 52.685 C 206.537 53.133,206.007 53.500,206.087 53.500 C 206.292 53.500,208.463 52.194,208.585 51.997 C 208.719 51.781,208.776 51.752,207.263 52.685 M382.792 51.951 C 382.998 51.991,383.335 51.991,383.542 51.951 C 383.748 51.911,383.579 51.879,383.167 51.879 C 382.754 51.879,382.585 51.911,382.792 51.951 M18.750 52.167 C 18.325 52.349,18.763 52.349,19.333 52.167 C 19.668 52.059,19.685 52.032,19.417 52.028 C 19.233 52.026,18.933 52.088,18.750 52.167 M384.500 52.163 C 385.863 52.612,386.712 52.844,386.772 52.784 C 386.861 52.694,384.648 51.996,384.329 52.013 C 384.194 52.020,384.271 52.088,384.500 52.163 M17.417 52.577 C 16.773 52.872,17.072 52.876,17.833 52.583 C 18.154 52.460,18.304 52.356,18.167 52.354 C 18.029 52.351,17.692 52.451,17.417 52.577 M16.125 53.095 C 15.479 53.446,15.552 53.567,16.208 53.233 C 16.837 52.914,16.948 52.831,16.736 52.840 C 16.652 52.844,16.377 52.959,16.125 53.095 M14.326 54.159 C 13.817 54.512,13.294 54.939,13.164 55.109 C 12.981 55.346,13.021 55.336,13.338 55.064 C 13.565 54.871,14.161 54.439,14.664 54.106 C 15.167 53.773,15.505 53.504,15.414 53.508 C 15.324 53.513,14.834 53.806,14.326 54.159 M204.294 53.928 C 204.242 53.980,203.836 54.084,203.391 54.159 C 202.821 54.254,202.730 54.299,203.083 54.311 C 203.358 54.321,203.921 54.222,204.333 54.092 C 204.746 53.962,204.927 53.851,204.736 53.844 C 204.545 53.838,204.346 53.876,204.294 53.928 M389.667 54.436 C 389.988 54.688,390.887 55.536,391.666 56.321 C 392.444 57.106,392.921 57.524,392.725 57.249 C 392.249 56.584,390.396 54.830,389.667 54.357 L 389.083 53.978 389.667 54.436 M169.520 54.708 C 169.231 55.490,169.302 76.945,169.594 77.237 C 169.831 77.474,171.534 77.496,186.554 77.460 L 203.250 77.419 186.500 77.335 L 169.750 77.250 169.707 65.876 L 169.664 54.502 185.874 54.458 L 202.083 54.415 185.871 54.374 L 169.658 54.333 169.520 54.708 M11.212 57.067 C 10.763 57.583,9.500 59.676,9.500 59.903 C 9.500 59.999,9.792 59.579,10.148 58.969 C 10.505 58.359,11.001 57.591,11.251 57.263 C 11.766 56.589,11.740 56.460,11.212 57.067 M393.333 58.407 C 393.333 58.530,394.028 59.667,394.103 59.667 C 394.142 59.667,394.020 59.367,393.833 59.000 C 393.535 58.415,393.333 58.176,393.333 58.407 M394.173 59.856 C 394.169 59.914,394.276 60.214,394.410 60.523 C 394.544 60.831,394.654 60.971,394.654 60.833 C 394.655 60.593,394.185 59.639,394.173 59.856 M395.108 62.667 C 395.164 62.987,395.265 63.587,395.333 64.000 L 395.455 64.750 395.465 64.083 C 395.470 63.717,395.369 63.117,395.240 62.750 C 395.010 62.094,395.008 62.092,395.108 62.667 M8.417 63.167 C 8.353 63.546,8.338 63.893,8.384 63.939 C 8.429 63.985,8.519 63.712,8.583 63.333 C 8.647 62.954,8.662 62.607,8.616 62.561 C 8.571 62.515,8.481 62.788,8.417 63.167 M8.225 65.833 C 8.225 66.612,8.254 66.931,8.289 66.542 C 8.324 66.152,8.324 65.515,8.289 65.125 C 8.254 64.735,8.225 65.054,8.225 65.833 M395.379 67.667 C 395.379 68.079,395.411 68.248,395.451 68.042 C 395.491 67.835,395.491 67.498,395.451 67.292 C 395.411 67.085,395.379 67.254,395.379 67.667 M8.367 68.083 C 8.367 68.267,8.427 68.604,8.500 68.833 C 8.606 69.163,8.633 69.181,8.633 68.917 C 8.633 68.733,8.573 68.396,8.500 68.167 C 8.394 67.837,8.367 67.819,8.367 68.083 M395.083 69.000 C 395.020 69.288,395.003 69.559,395.045 69.601 C 395.088 69.643,395.171 69.439,395.229 69.146 C 395.368 68.451,395.233 68.316,395.083 69.000 M8.674 69.523 C 8.670 69.672,8.776 70.047,8.910 70.356 C 9.225 71.081,9.233 70.780,8.921 69.917 C 8.789 69.550,8.678 69.373,8.674 69.523 M394.445 71.118 C 394.391 71.282,394.236 71.660,394.099 71.958 C 393.962 72.256,393.883 72.500,393.924 72.500 C 394.051 72.500,394.714 70.992,394.626 70.904 C 394.580 70.858,394.499 70.954,394.445 71.118 M393.372 73.262 C 393.165 73.576,393.030 73.833,393.070 73.833 C 393.186 73.833,393.877 72.821,393.808 72.752 C 393.774 72.718,393.578 72.948,393.372 73.262 M10.245 73.323 C 10.384 73.592,10.573 73.859,10.666 73.916 C 10.758 73.973,10.676 73.753,10.484 73.427 C 10.062 72.711,9.890 72.637,10.245 73.323 M392.622 74.375 C 391.436 76.160,388.535 78.245,385.934 79.182 C 385.466 79.350,385.210 79.491,385.364 79.494 C 386.955 79.528,391.762 76.162,392.883 74.230 C 393.102 73.853,392.892 73.970,392.622 74.375 M11.126 74.607 C 12.042 75.898,14.911 78.205,16.083 78.594 C 16.267 78.655,15.817 78.349,15.083 77.914 C 14.213 77.397,13.230 76.595,12.252 75.603 C 11.428 74.767,10.921 74.319,11.126 74.607 M203.833 77.667 C 204.403 77.849,204.841 77.849,204.417 77.667 C 204.233 77.588,203.933 77.526,203.750 77.528 C 203.482 77.532,203.498 77.559,203.833 77.667 M206.333 78.375 C 206.379 78.425,206.988 78.848,207.687 79.314 C 208.887 80.115,209.730 80.902,210.374 81.823 C 210.531 82.047,210.705 82.184,210.761 82.128 C 210.949 81.939,208.070 79.256,207.154 78.766 C 206.657 78.500,206.287 78.324,206.333 78.375 M17.644 79.257 C 17.953 79.390,18.328 79.497,18.477 79.493 C 18.627 79.489,18.450 79.377,18.083 79.245 C 17.220 78.934,16.919 78.942,17.644 79.257 M19.083 79.667 C 19.267 79.745,19.529 79.810,19.667 79.810 C 19.824 79.810,19.793 79.757,19.583 79.667 C 19.400 79.588,19.137 79.523,19.000 79.523 C 18.842 79.523,18.873 79.576,19.083 79.667 M384.083 79.667 L 383.750 79.810 384.083 79.819 C 384.267 79.824,384.529 79.756,384.667 79.667 C 384.998 79.453,384.582 79.453,384.083 79.667 M56.865 79.958 L 92.980 80.001 93.440 81.443 C 93.692 82.237,93.921 82.818,93.947 82.735 C 93.974 82.651,93.790 81.983,93.539 81.250 L 93.083 79.917 56.917 79.916 L 20.750 79.916 56.865 79.958 M310.367 80.033 C 310.257 80.143,310.168 80.312,310.169 80.408 C 310.171 80.505,310.243 80.471,310.330 80.333 C 310.469 80.113,314.773 80.073,346.869 79.999 L 383.250 79.915 346.908 79.874 C 318.819 79.843,310.521 79.879,310.367 80.033 M309.439 82.518 C 309.401 82.646,309.249 83.090,309.102 83.506 C 308.681 84.691,308.811 84.702,309.268 83.520 C 309.494 82.935,309.640 82.418,309.593 82.371 C 309.546 82.324,309.477 82.390,309.439 82.518 M94.340 83.939 C 94.336 84.043,94.443 84.381,94.577 84.689 C 94.711 84.998,94.823 85.165,94.827 85.061 C 94.830 84.957,94.724 84.619,94.590 84.311 C 94.456 84.002,94.343 83.835,94.340 83.939 M211.668 84.032 C 211.667 84.187,211.729 84.352,211.805 84.399 C 211.881 84.446,212.043 84.901,212.165 85.410 C 212.287 85.919,212.423 86.299,212.467 86.256 C 212.569 86.153,212.167 84.709,211.885 84.167 C 211.735 83.877,211.668 83.836,211.668 84.032 M307.946 86.421 C 307.884 86.602,307.788 86.862,307.733 87.000 C 307.677 87.138,307.758 87.079,307.912 86.871 C 308.066 86.662,308.162 86.402,308.125 86.292 C 308.088 86.180,308.009 86.236,307.946 86.421 M95.555 87.042 C 95.856 87.761,96.483 88.944,96.493 88.810 C 96.503 88.657,95.482 86.500,95.399 86.500 C 95.360 86.500,95.431 86.744,95.555 87.042 M212.564 88.417 C 212.564 89.517,212.591 89.945,212.624 89.368 C 212.656 88.792,212.656 87.892,212.623 87.368 C 212.590 86.845,212.563 87.317,212.564 88.417 M306.180 90.112 C 305.898 90.632,305.700 91.089,305.740 91.129 C 305.779 91.168,306.042 90.743,306.325 90.184 C 306.972 88.902,306.864 88.849,306.180 90.112 M96.833 89.740 C 96.833 89.864,97.528 91.000,97.603 91.000 C 97.642 91.000,97.520 90.700,97.333 90.333 C 97.035 89.748,96.833 89.509,96.833 89.740 M212.262 91.095 C 212.201 91.339,212.183 91.571,212.222 91.611 C 212.261 91.650,212.343 91.482,212.405 91.238 C 212.466 90.994,212.484 90.762,212.445 90.723 C 212.406 90.683,212.323 90.851,212.262 91.095 M97.988 91.792 C 98.383 92.542,98.997 93.462,98.999 93.304 C 99.000 93.157,97.816 91.167,97.727 91.167 C 97.690 91.167,97.808 91.448,97.988 91.792 M304.964 92.292 C 304.649 92.819,304.112 93.681,303.773 94.208 C 303.434 94.735,303.198 95.167,303.248 95.167 C 303.347 95.167,304.495 93.414,305.241 92.125 C 305.492 91.690,305.662 91.333,305.619 91.333 C 305.575 91.333,305.280 91.765,304.964 92.292 M211.965 92.088 C 211.913 92.269,211.820 92.567,211.758 92.750 C 211.696 92.933,211.767 92.873,211.917 92.615 C 212.066 92.357,212.159 92.059,212.123 91.953 C 212.088 91.846,212.016 91.907,211.965 92.088 M100.032 95.039 C 100.610 95.885,101.262 96.766,101.481 96.997 C 101.700 97.228,101.530 96.929,101.104 96.333 C 100.678 95.737,100.086 94.858,99.789 94.380 C 99.493 93.901,99.189 93.507,99.115 93.505 C 99.041 93.502,99.454 94.192,100.032 95.039 M210.872 94.429 C 210.665 94.743,210.530 95.000,210.570 95.000 C 210.686 95.000,211.377 93.988,211.308 93.919 C 211.274 93.885,211.078 94.114,210.872 94.429 M302.881 95.542 C 302.159 96.486,301.778 97.050,301.920 96.964 C 302.117 96.845,303.224 95.333,303.114 95.333 C 303.074 95.333,302.969 95.427,302.881 95.542 M208.750 96.864 C 208.475 97.133,208.037 97.467,207.776 97.606 C 207.516 97.744,207.345 97.900,207.397 97.952 C 207.480 98.036,207.777 97.831,209.062 96.803 C 209.254 96.649,209.375 96.490,209.331 96.449 C 209.286 96.408,209.025 96.595,208.750 96.864 M301.114 97.837 C 300.506 98.696,300.652 98.694,301.333 97.833 C 301.624 97.467,301.799 97.168,301.722 97.170 C 301.646 97.172,301.372 97.472,301.114 97.837 M102.442 98.292 C 103.337 99.415,104.334 100.514,104.328 100.371 C 104.325 100.305,103.987 99.880,103.578 99.428 C 103.169 98.975,102.665 98.357,102.459 98.054 C 102.252 97.750,102.022 97.502,101.947 97.501 C 101.872 97.501,102.095 97.856,102.442 98.292 M206.000 98.583 C 205.771 98.714,205.658 98.822,205.750 98.822 C 205.842 98.822,206.104 98.714,206.333 98.583 C 206.563 98.452,206.675 98.345,206.583 98.345 C 206.492 98.345,206.229 98.452,206.000 98.583 M299.441 99.857 C 298.905 100.498,298.493 101.042,298.525 101.067 C 298.557 101.093,299.057 100.563,299.636 99.890 C 300.215 99.217,300.628 98.673,300.553 98.680 C 300.478 98.687,299.978 99.217,299.441 99.857 M204.833 99.000 C 204.611 99.144,204.611 99.162,204.833 99.162 C 204.971 99.162,205.196 99.089,205.333 99.000 C 205.556 98.856,205.556 98.838,205.333 98.838 C 205.196 98.838,204.971 98.911,204.833 99.000 M203.333 99.333 C 202.773 99.513,203.378 99.513,204.083 99.333 C 204.532 99.219,204.541 99.206,204.167 99.203 C 203.938 99.201,203.563 99.260,203.333 99.333 M169.489 99.945 C 169.381 100.229,169.328 103.458,169.342 108.820 L 169.365 117.250 154.307 117.335 L 139.250 117.420 154.417 117.418 L 169.583 117.417 169.626 108.542 L 169.670 99.668 186.293 99.625 L 202.917 99.582 186.288 99.541 L 169.658 99.500 169.489 99.945 M104.500 100.616 C 104.500 100.693,105.306 101.542,106.292 102.503 L 108.083 104.250 106.500 102.597 C 105.629 101.687,104.823 100.838,104.708 100.710 C 104.594 100.581,104.500 100.539,104.500 100.616 M297.651 101.799 C 296.991 102.571,297.055 102.750,297.724 102.000 C 297.969 101.725,298.110 101.500,298.038 101.500 C 297.966 101.500,297.792 101.634,297.651 101.799 M296.458 103.003 C 295.816 103.634,295.884 103.792,296.536 103.183 C 296.830 102.908,297.036 102.653,296.994 102.617 C 296.951 102.582,296.710 102.755,296.458 103.003 M295.162 104.213 C 293.320 105.895,291.341 107.412,288.831 109.063 C 286.373 110.680,286.318 110.719,286.833 110.481 C 287.228 110.298,290.801 107.976,291.333 107.556 C 294.062 105.402,296.057 103.682,295.833 103.678 C 295.787 103.677,295.485 103.917,295.162 104.213 M108.667 104.750 C 108.978 105.071,109.270 105.333,109.315 105.333 C 109.361 105.333,109.144 105.071,108.833 104.750 C 108.522 104.429,108.230 104.167,108.185 104.167 C 108.139 104.167,108.356 104.429,108.667 104.750 M109.552 105.449 C 109.692 105.676,111.000 106.731,111.000 106.617 C 111.000 106.575,110.647 106.251,110.216 105.898 C 109.785 105.545,109.486 105.343,109.552 105.449 M111.736 107.234 C 112.095 107.564,112.433 107.786,112.486 107.727 C 112.540 107.669,112.487 107.587,112.369 107.545 C 112.251 107.503,111.913 107.281,111.619 107.052 C 111.269 106.780,111.310 106.843,111.736 107.234 M112.667 107.918 C 112.667 108.045,114.001 108.888,114.079 108.810 C 114.118 108.770,113.817 108.536,113.409 108.290 C 113.001 108.043,112.667 107.876,112.667 107.918 M116.500 110.412 C 116.500 110.456,116.744 110.610,117.042 110.756 L 117.583 111.020 117.167 110.680 C 116.765 110.353,116.500 110.247,116.500 110.412 M285.458 111.095 C 284.835 111.433,284.873 111.574,285.500 111.250 C 285.775 111.108,286.000 110.956,286.000 110.912 C 286.000 110.805,285.982 110.811,285.458 111.095 M120.500 112.583 C 121.048 112.896,121.319 112.900,120.907 112.589 C 120.729 112.454,120.471 112.344,120.333 112.345 C 120.188 112.345,120.258 112.445,120.500 112.583 M122.073 113.259 C 122.525 113.483,122.975 113.664,123.073 113.661 C 123.290 113.653,121.651 112.853,121.417 112.852 C 121.325 112.851,121.620 113.034,122.073 113.259 M280.667 113.417 C 280.438 113.548,280.325 113.655,280.417 113.655 C 280.508 113.655,280.771 113.548,281.000 113.417 C 281.229 113.286,281.342 113.178,281.250 113.178 C 281.158 113.178,280.896 113.286,280.667 113.417 M124.477 114.257 C 124.786 114.390,125.123 114.497,125.227 114.493 C 125.332 114.490,125.164 114.377,124.856 114.243 C 124.547 114.110,124.210 114.003,124.106 114.007 C 124.002 114.010,124.169 114.123,124.477 114.257 M277.333 114.667 C 277.111 114.810,277.111 114.828,277.333 114.828 C 277.471 114.828,277.696 114.756,277.833 114.667 C 278.056 114.523,278.056 114.505,277.833 114.505 C 277.696 114.505,277.471 114.578,277.333 114.667 M126.583 115.000 C 127.042 115.197,127.205 115.197,127.083 115.000 C 127.027 114.908,126.816 114.839,126.615 114.845 C 126.263 114.856,126.262 114.862,126.583 115.000 M276.333 115.000 C 276.111 115.144,276.111 115.162,276.333 115.162 C 276.471 115.162,276.696 115.089,276.833 115.000 C 277.056 114.856,277.056 114.838,276.833 114.838 C 276.696 114.838,276.471 114.911,276.333 115.000 M128.250 115.500 C 128.433 115.579,128.696 115.643,128.833 115.643 C 128.991 115.643,128.960 115.590,128.750 115.500 C 128.567 115.421,128.304 115.357,128.167 115.357 C 128.009 115.357,128.040 115.410,128.250 115.500 M129.181 115.727 C 129.219 115.759,129.475 115.837,129.750 115.898 C 130.115 115.980,130.183 115.964,130.000 115.841 C 129.775 115.689,129.013 115.582,129.181 115.727 M273.500 115.841 C 273.317 115.964,273.385 115.980,273.750 115.898 C 274.363 115.761,274.496 115.666,274.069 115.669 C 273.894 115.671,273.637 115.748,273.500 115.841 M131.167 116.257 C 131.671 116.383,132.158 116.481,132.250 116.475 C 132.585 116.455,131.071 116.026,130.667 116.027 C 130.438 116.028,130.662 116.131,131.167 116.257 M271.333 116.333 C 270.998 116.441,270.982 116.468,271.250 116.472 C 271.433 116.474,271.733 116.412,271.917 116.333 C 272.341 116.151,271.903 116.151,271.333 116.333 M133.167 116.667 C 133.809 116.872,134.152 116.872,133.833 116.667 C 133.696 116.578,133.396 116.511,133.167 116.519 L 132.750 116.533 133.167 116.667 M269.500 116.667 C 269.182 116.872,269.524 116.872,270.167 116.667 L 270.583 116.533 270.167 116.519 C 269.938 116.511,269.637 116.578,269.500 116.667 M135.333 117.009 C 136.339 117.187,137.127 117.172,136.250 116.990 C 135.883 116.915,135.358 116.858,135.083 116.864 C 134.708 116.872,134.771 116.908,135.333 117.009 M267.167 117.000 C 266.334 117.175,267.188 117.183,268.167 117.009 C 268.843 116.888,268.860 116.875,268.333 116.876 C 268.012 116.877,267.487 116.932,267.167 117.000 M137.377 117.286 C 137.631 117.325,138.006 117.324,138.211 117.284 C 138.416 117.244,138.208 117.213,137.750 117.214 C 137.292 117.216,137.124 117.248,137.377 117.286 M228.309 117.376 C 228.378 117.445,236.493 117.482,246.342 117.459 L 264.250 117.417 246.217 117.333 C 236.298 117.287,228.240 117.307,228.309 117.376 M265.128 117.287 C 265.428 117.325,265.878 117.324,266.128 117.286 C 266.378 117.248,266.133 117.217,265.583 117.218 C 265.033 117.219,264.828 117.250,265.128 117.287 " stroke="none" fill="#8c8c8c" fill-rule="evenodd"></path></g></svg>